<svg xmlns="http://www.w3.org/2000/svg" width="38.499" height="25.666" viewBox="0 0 38.499 25.666">
    <defs>
        <style>
            .cls-1{fill:#283fd9}
        </style>
    </defs>
    <path id="cellphone-link" d="M35.291 24.854h-6.416V13.625h6.417m1.6-3.208H27.27a1.6 1.6 0 0 0-1.6 1.6v16.045a1.6 1.6 0 0 0 1.6 1.6h9.63a1.6 1.6 0 0 0 1.6-1.6V12.021a1.6 1.6 0 0 0-1.6-1.6M6.417 7.208h28.874V4H6.417a3.208 3.208 0 0 0-3.209 3.208v17.646H0v4.812h22.458v-4.812H6.417z" class="cls-1" transform="translate(0 -4)"/>
</svg>
