<svg xmlns="http://www.w3.org/2000/svg" width="27" height="30" viewBox="0 0 27 30">
    <defs>
        <style>
            .cls-1{fill:#283fd9}
        </style>
    </defs>
    <path id="cube-outline" d="M30 23.75a1.487 1.487 0 0 1-.8 1.32l-11.85 6.66a1.489 1.489 0 0 1-1.71 0L3.8 25.07a1.487 1.487 0 0 1-.8-1.32v-13.5a1.487 1.487 0 0 1 .8-1.32l11.85-6.66a1.489 1.489 0 0 1 1.71 0L29.2 8.93a1.487 1.487 0 0 1 .8 1.32v13.5M16.5 5.225L7.56 10.25l8.94 5.025 8.94-5.025-8.94-5.025M6 22.865l9 5.07V17.87l-9-5.055v10.05m21 0v-10.05l-9 5.055v10.065z" class="cls-1" transform="translate(-3 -2)"/>
</svg>
