<svg height="134.49" viewBox="0 0 186.424 134.49" width="186.424" xmlns="http://www.w3.org/2000/svg">
    <g fill="#151515" opacity=".149" transform="translate(-405.461 425.028)">
        <path d="m461.433-379.68v3.223h-11.427v-3.223c0-3.869-2.567-7.014-5.733-7.014s-5.755 3.146-5.755 7.014v19.08a15.375 15.375 0 0 1 -15.376 15.376 10.711 10.711 0 0 0 1.625-5.714 10.709 10.709 0 0 0 -1.625-5.713 3.951 3.951 0 0 0 3.951-3.949v-19.08c0-10.162 7.7-18.441 17.18-18.441 9.46 0 17.16 8.279 17.16 18.441" transform="translate(5.564 6.407)"/>
        <path d="m493.577-321.939h-11.425v-74.648c0-3.869-2.576-7.016-5.742-7.016s-5.744 3.148-5.744 7.016v52.055h-11.427v-52.055c0-10.169 7.7-18.441 17.171-18.441s17.167 8.272 17.167 18.441z" transform="translate(19.244)"/>
        <path d="m459.793-321.194c-9.469 0-17.169-8.274-17.169-18.441v-45.595h11.427v45.594c0 3.868 2.574 7.014 5.742 7.014s5.742-3.146 5.742-7.014v-16.189h11.427v16.189c0 10.168-7.702 18.442-17.169 18.442z" transform="translate(12.947 11.293)"/>
        <path d="m538.177-350.933a10.71 10.71 0 0 0 1.625 5.714h-11.427a12.99 12.99 0 0 1 -12.992-12.99v-21.471c0-3.868-2.585-7.014-5.751-7.014s-5.735 3.146-5.735 7.014v28.747h-11.426v-28.747c0-10.162 7.7-18.441 17.162-18.441 9.482 0 17.178 8.279 17.178 18.441v19.2a3.836 3.836 0 0 0 3.835 3.835h9.154a10.709 10.709 0 0 0 -1.625 5.713z" transform="translate(31.838 6.407)"/>
        <path d="m493.022-309.913c-9.467 0-17.167-8.272-17.167-18.441v-15.213h11.425v15.213c0 3.868 2.578 7.014 5.742 7.014s5.744-3.146 5.744-7.014v-35.552h11.425v35.552c0 10.169-7.7 18.441-17.169 18.441z" transform="translate(25.541 19.374)"/>
        <path d="m430.331-360.894a10.71 10.71 0 0 1 -1.625 5.714 10.882 10.882 0 0 1 -9.3 5.213 10.943 10.943 0 0 1 -10.945-10.927 10.96 10.96 0 0 1 10.945-10.945 10.855 10.855 0 0 1 9.3 5.233 10.709 10.709 0 0 1 1.625 5.713z" transform="translate(0 16.367)"/>
        <path d="m459.889-382.213a10.717 10.717 0 0 1 -1.623 5.711 10.884 10.884 0 0 1 -9.3 5.213 10.942 10.942 0 0 1 -10.945-10.923 10.96 10.96 0 0 1 10.945-10.947 10.861 10.861 0 0 1 9.3 5.233 10.726 10.726 0 0 1 1.623 5.715z" transform="translate(11.202 8.287)"/>
        <path d="m477.321-362.1a10.723 10.723 0 0 1 -1.622 5.713 10.89 10.89 0 0 1 -9.3 5.213 10.942 10.942 0 0 1 -10.947-10.926 10.959 10.959 0 0 1 10.948-10.95 10.863 10.863 0 0 1 9.3 5.233 10.718 10.718 0 0 1 1.622 5.713" transform="translate(17.809 15.909)"/>
        <path d="m493.559-341.314a10.709 10.709 0 0 1 -1.624 5.715 10.887 10.887 0 0 1 -9.3 5.212 10.941 10.941 0 0 1 -10.945-10.927 10.959 10.959 0 0 1 10.945-10.945 10.86 10.86 0 0 1 9.3 5.233 10.712 10.712 0 0 1 1.624 5.713z" transform="translate(23.963 23.788)"/>
        <path d="m510.176-360.894a10.725 10.725 0 0 1 -1.623 5.714 10.89 10.89 0 0 1 -9.3 5.213 10.945 10.945 0 0 1 -10.953-10.927 10.962 10.962 0 0 1 10.947-10.945 10.863 10.863 0 0 1 9.3 5.233 10.724 10.724 0 0 1 1.623 5.713z" transform="translate(30.259 16.367)"/>
        <circle cx="529.46" cy="-344.559" r="5"/>
        <path d="m304.384-13023.686a10.92 10.92 0 0 1 -5.408-1.434 10.884 10.884 0 0 1 -3.89-3.782 10.72 10.72 0 0 1 -1.627-5.713 10.735 10.735 0 0 1 1.627-5.713 10.863 10.863 0 0 1 3.89-3.8 10.888 10.888 0 0 1 5.408-1.436 10.957 10.957 0 0 1 10.945 10.944 10.949 10.949 0 0 1 -10.945 10.934zm-.481-15.961a5.005 5.005 0 0 0 -5 5 5 5 0 0 0 5 5 5.006 5.006 0 0 0 5-5 5.007 5.007 0 0 0 -5.003-4.999z" transform="translate(276.555 12690.087)"/>
        <path d="m5 0a5 5 0 1 1 -5 5 5 5 0 0 1 5-5z" transform="translate(414.46 -349.559)"/>
        <circle cx="460.46" cy="-374.559" r="5"/>
        <circle cx="484.46" cy="-346.559" r="5"/>
        <circle cx="506.46" cy="-317.559" r="5"/>
    </g>
    <g fill="#283fd9">
        <path d="m461.433-379.68v3.223h-11.427v-3.223c0-3.869-2.567-7.014-5.733-7.014s-5.755 3.146-5.755 7.014v19.08a15.375 15.375 0 0 1 -15.376 15.376 10.711 10.711 0 0 0 1.625-5.714 10.709 10.709 0 0 0 -1.625-5.713 3.951 3.951 0 0 0 3.951-3.949v-19.08c0-10.162 7.7-18.441 17.18-18.441 9.46 0 17.16 8.279 17.16 18.441" transform="translate(-402.897 421.435)"/>
        <path d="m493.577-321.939h-11.425v-74.648c0-3.869-2.576-7.016-5.742-7.016s-5.744 3.148-5.744 7.016v52.055h-11.427v-52.055c0-10.169 7.7-18.441 17.171-18.441s17.167 8.272 17.167 18.441z" transform="translate(-389.217 415.028)"/>
        <path d="m459.793-321.194c-9.469 0-17.169-8.274-17.169-18.441v-45.595h11.427v45.594c0 3.868 2.574 7.014 5.742 7.014s5.742-3.146 5.742-7.014v-16.189h11.427v16.189c0 10.168-7.702 18.442-17.169 18.442z" transform="translate(-395.514 426.321)"/>
        <path d="m538.177-350.933a10.71 10.71 0 0 0 1.625 5.714h-11.427a12.99 12.99 0 0 1 -12.992-12.99v-21.471c0-3.868-2.585-7.014-5.751-7.014s-5.735 3.146-5.735 7.014v28.747h-11.426v-28.747c0-10.162 7.7-18.441 17.162-18.441 9.482 0 17.178 8.279 17.178 18.441v19.2a3.836 3.836 0 0 0 3.835 3.835h9.154a10.709 10.709 0 0 0 -1.625 5.713z" transform="translate(-376.623 421.435)"/>
        <path d="m493.022-309.913c-9.467 0-17.167-8.272-17.167-18.441v-15.213h11.425v15.213c0 3.868 2.578 7.014 5.742 7.014s5.744-3.146 5.744-7.014v-35.552h11.425v35.552c0 10.169-7.7 18.441-17.169 18.441z" transform="translate(-382.92 434.402)"/>
        <path d="m430.331-360.894a10.71 10.71 0 0 1 -1.625 5.714 10.882 10.882 0 0 1 -9.3 5.213 10.943 10.943 0 0 1 -10.945-10.927 10.96 10.96 0 0 1 10.945-10.945 10.855 10.855 0 0 1 9.3 5.233 10.709 10.709 0 0 1 1.625 5.713z" transform="translate(-408.461 431.395)"/>
        <path d="m459.889-382.213a10.717 10.717 0 0 1 -1.623 5.711 10.884 10.884 0 0 1 -9.3 5.213 10.942 10.942 0 0 1 -10.945-10.923 10.96 10.96 0 0 1 10.945-10.947 10.861 10.861 0 0 1 9.3 5.233 10.726 10.726 0 0 1 1.623 5.715z" transform="translate(-397.259 423.315)"/>
        <path d="m477.321-362.1a10.723 10.723 0 0 1 -1.622 5.713 10.89 10.89 0 0 1 -9.3 5.213 10.942 10.942 0 0 1 -10.947-10.926 10.959 10.959 0 0 1 10.948-10.95 10.863 10.863 0 0 1 9.3 5.233 10.718 10.718 0 0 1 1.622 5.713" transform="translate(-390.652 430.937)"/>
        <path d="m493.559-341.314a10.709 10.709 0 0 1 -1.624 5.715 10.887 10.887 0 0 1 -9.3 5.212 10.941 10.941 0 0 1 -10.945-10.927 10.959 10.959 0 0 1 10.945-10.945 10.86 10.86 0 0 1 9.3 5.233 10.712 10.712 0 0 1 1.624 5.713z" transform="translate(-384.498 438.816)"/>
        <path d="m510.176-360.894a10.725 10.725 0 0 1 -1.623 5.714 10.89 10.89 0 0 1 -9.3 5.213 10.945 10.945 0 0 1 -10.953-10.927 10.962 10.962 0 0 1 10.947-10.945 10.863 10.863 0 0 1 9.3 5.233 10.724 10.724 0 0 1 1.623 5.713z" transform="translate(-378.202 431.395)"/>
    </g>
    <circle cx="120.999" cy="70.469" fill="#fff" r="5"/>
    <path d="m304.384-13023.686a10.92 10.92 0 0 1 -5.408-1.434 10.884 10.884 0 0 1 -3.89-3.782 10.72 10.72 0 0 1 -1.627-5.713 10.735 10.735 0 0 1 1.627-5.713 10.863 10.863 0 0 1 3.89-3.8 10.888 10.888 0 0 1 5.408-1.436 10.957 10.957 0 0 1 10.945 10.944 10.949 10.949 0 0 1 -10.945 10.934zm-.481-15.961a5.005 5.005 0 0 0 -5 5 5 5 0 0 0 5 5 5.006 5.006 0 0 0 5-5 5.007 5.007 0 0 0 -5.003-4.999z" fill="#283fd9" transform="translate(-131.906 13105.115)"/>
    <path d="m5 0a5 5 0 1 1 -5 5 5 5 0 0 1 5-5z" fill="#fff" transform="translate(5.999 65.469)"/>
    <circle cx="51.999" cy="40.469" fill="#fff" r="5"/>
    <circle cx="75.999" cy="68.469" fill="#fff" r="5"/>
    <circle cx="97.999" cy="97.469" fill="#fff" r="5"/>
</svg>