<svg xmlns="http://www.w3.org/2000/svg" width="30" height="30" viewBox="0 0 30 30">
    <defs>
        <style>
            .cls-1{fill:#283fd9}
        </style>
    </defs>
    <path id="file-table-box-multiple-outline" d="M3.727 6.455v21.818h21.818V31H3.727A2.735 2.735 0 0 1 1 28.273V6.455h2.727M28.273 1H9.182a2.718 2.718 0 0 0-2.727 2.727v19.091a2.735 2.735 0 0 0 2.727 2.727h19.091A2.718 2.718 0 0 0 31 22.818V3.727A2.735 2.735 0 0 0 28.273 1m0 21.818H9.182V3.727h19.091v19.091m-13.637-4.091h-4.091v2.727h4.091v-2.727m5.455 0H16v2.727h4.091v-2.727m-5.455-4.091h-4.091v2.727h4.091v-2.727m5.455 0H16v2.727h4.091v-2.727m-5.455-4.091h-4.091v2.727h4.091v-2.727m5.455 0H16v2.727h4.091z" class="cls-1" transform="translate(-1 -1)"/>
</svg>
