<svg xmlns="http://www.w3.org/2000/svg" width="21" height="30" viewBox="0 0 21 30">
    <defs>
        <style>
            .cls-1{fill:#283fd9}
        </style>
    </defs>
    <path id="gesture-double-tap" d="M12.5 12a1.5 1.5 0 0 1 3 0v6.7l1.815.2 7.41 3.285A2.2 2.2 0 0 1 26 24.21v6.54A2.328 2.328 0 0 1 23.75 33H14a2.03 2.03 0 0 1-1.5-.645l-7.35-6.3L6.26 24.9a1.487 1.487 0 0 1 1.11-.48h.33L12.5 27V12M14 6a6 6 0 0 1 6 6 5.934 5.934 0 0 1-3 5.19v-1.83a4.5 4.5 0 1 0-6 0v1.83A5.934 5.934 0 0 1 8 12a6 6 0 0 1 6-6m0-3a9.007 9.007 0 0 1 6.24 15.495l-1.5-.675A7.508 7.508 0 1 0 11 18.87v1.62A9 9 0 0 1 14 3z" class="cls-1" transform="translate(-5 -3)"/>
</svg>
