<svg height="114.854" viewBox="0 0 152.963 114.854" width="152.963" xmlns="http://www.w3.org/2000/svg">
    <g fill="#151515" opacity=".147" transform="translate(3 10)">
        <path d="m283.392-363.974a41.755 41.755 0 0 0 -41.712-41.712h-8.867l2.22-2.53a4.709 4.709 0 0 0 -.43-6.647 4.7 4.7 0 0 0 -6.647.43l-41.645 47.35a4.688 4.688 0 0 0 -.754 5.047 4.7 4.7 0 0 0 4.292 2.771h25.378l-21.354 27.585h-18.732a32.337 32.337 0 0 1 -32.294-32.293 32.084 32.084 0 0 1 2.852-13.24 12.835 12.835 0 0 0 1.692.125 12.637 12.637 0 0 0 12.639-12.639 12.721 12.721 0 0 0 -.277-2.629 32.087 32.087 0 0 1 15.388-3.911h20.2a4.714 4.714 0 0 0 4.708-4.71 4.713 4.713 0 0 0 -4.708-4.708h-20.2a41.431 41.431 0 0 0 -20.656 5.5 12.586 12.586 0 0 0 -7.094-2.178 12.639 12.639 0 0 0 -12.639 12.639 12.566 12.566 0 0 0 2.732 7.831 41.438 41.438 0 0 0 -4.055 17.923 41.766 41.766 0 0 0 41.712 41.712h11.437l-2.7 3.485a4.714 4.714 0 0 0 .848 6.607 4.692 4.692 0 0 0 2.879.982 4.72 4.72 0 0 0 3.728-1.831l37.215-48.085a4.692 4.692 0 0 0 .511-4.952 4.718 4.718 0 0 0 -4.225-2.637h-24.57l24.355-27.691a4.975 4.975 0 0 0 .994.107h16.067a32.329 32.329 0 0 1 32.294 32.294 32.2 32.2 0 0 1 -9.475 22.831 12.576 12.576 0 0 0 -7.78-2.691 12.627 12.627 0 0 0 -12.608 12.052c-.8.06-1.613.1-2.431.1h-20.44a4.716 4.716 0 0 0 -4.71 4.71 4.715 4.715 0 0 0 4.71 4.71h20.44a41.644 41.644 0 0 0 5.733-.4 12.587 12.587 0 0 0 9.307 4.11 12.639 12.639 0 0 0 12.64-12.639 12.676 12.676 0 0 0 -.1-1.521 41.619 41.619 0 0 0 14.134-31.258" transform="translate(-133.429 416.041)"/>
        <circle cx="14" cy="25.678" r="6"/><circle cx="124" cy="84.678" r="6"/></g><path d="m283.392-363.974a41.755 41.755 0 0 0 -41.712-41.712h-8.867l2.22-2.53a4.709 4.709 0 0 0 -.43-6.647 4.7 4.7 0 0 0 -6.647.43l-41.645 47.35a4.688 4.688 0 0 0 -.754 5.047 4.7 4.7 0 0 0 4.292 2.771h25.378l-21.354 27.585h-18.732a32.337 32.337 0 0 1 -32.294-32.293 32.084 32.084 0 0 1 2.852-13.24 12.835 12.835 0 0 0 1.692.125 12.637 12.637 0 0 0 12.639-12.639 12.721 12.721 0 0 0 -.277-2.629 32.087 32.087 0 0 1 15.388-3.911h20.2a4.714 4.714 0 0 0 4.708-4.71 4.713 4.713 0 0 0 -4.708-4.708h-20.2a41.431 41.431 0 0 0 -20.656 5.5 12.586 12.586 0 0 0 -7.094-2.178 12.639 12.639 0 0 0 -12.639 12.639 12.566 12.566 0 0 0 2.732 7.831 41.438 41.438 0 0 0 -4.055 17.923 41.766 41.766 0 0 0 41.712 41.712h11.437l-2.7 3.485a4.714 4.714 0 0 0 .848 6.607 4.692 4.692 0 0 0 2.879.982 4.72 4.72 0 0 0 3.728-1.831l37.215-48.085a4.692 4.692 0 0 0 .511-4.952 4.718 4.718 0 0 0 -4.225-2.637h-24.57l24.355-27.691a4.975 4.975 0 0 0 .994.107h16.067a32.329 32.329 0 0 1 32.294 32.294 32.2 32.2 0 0 1 -9.475 22.831 12.576 12.576 0 0 0 -7.78-2.691 12.627 12.627 0 0 0 -12.608 12.052c-.8.06-1.613.1-2.431.1h-20.44a4.716 4.716 0 0 0 -4.71 4.71 4.715 4.715 0 0 0 4.71 4.71h20.44a41.644 41.644 0 0 0 5.733-.4 12.587 12.587 0 0 0 9.307 4.11 12.639 12.639 0 0 0 12.64-12.639 12.676 12.676 0 0 0 -.1-1.521 41.619 41.619 0 0 0 14.134-31.258" fill="#283fd9" transform="translate(-133.429 416.041)"/>
    <g fill="#fff">
        <circle cx="14" cy="25.678" r="6"/>
        <circle cx="124" cy="84.678" r="6"/>
    </g>
</svg>