<svg xmlns="http://www.w3.org/2000/svg" width="37.5" height="30" viewBox="0 0 37.5 30">
    <defs>
        <style>
            .cls-1{fill:#283fd9}
        </style>
    </defs>
    <path id="resistor-nodes" d="M2 17.125h3.131a5.625 5.625 0 1 1 9.881 5.137l2.119 3.019L22.831 4l2.813 3.994 3.919 5.587 1.5-.206a5.607 5.607 0 0 1 5.306 3.75H39.5v3.75h-3.131a5.625 5.625 0 1 1-9.881-5.137l-2.119-3.019L18.669 34l-6.731-9.581a5.618 5.618 0 0 1-6.806-3.544H2v-3.75m29.063-.937A2.813 2.813 0 1 0 33.875 19a2.813 2.813 0 0 0-2.812-2.812m-20.625 0A2.813 2.813 0 1 0 13.25 19a2.813 2.813 0 0 0-2.812-2.812z" class="cls-1" transform="translate(-2 -4)"/>
</svg>
