<svg height="112.066" viewBox="0 0 150.252 112.066" width="150.252" xmlns="http://www.w3.org/2000/svg">
    <path d="m545.783-508.737a4.384 4.384 0 0 1 -2.022 2.695 4.38 4.38 0 0 1 -3.335.478 4.385 4.385 0 0 1 -2.7-2.02 4.376 4.376 0 0 1 -.476-3.335 4.41 4.41 0 0 1 4.265-3.311 4.435 4.435 0 0 1 1.089.136 4.412 4.412 0 0 1 3.179 5.357zm-80.3-20.355a4.406 4.406 0 0 1 -4.4-4.4 4.407 4.407 0 0 1 4.4-4.4 4.4 4.4 0 0 1 4.395 4.349v.108a4.4 4.4 0 0 1 -4.39 4.342zm96.956-5.818a33.283 33.283 0 0 0 -19.339-30.16 3.792 3.792 0 0 1 -2.066-2.779 41.626 41.626 0 0 0 -40.683-33.239 41.283 41.283 0 0 0 -39.726 29.417 4.964 4.964 0 0 1 -4.748 3.577h-7.5a33.221 33.221 0 0 0 -33.185 33.183 33.221 33.221 0 0 0 33.185 33.183h54.514a4.709 4.709 0 0 0 .683-.069 18.3 18.3 0 0 0 16.926-18.216 18.305 18.305 0 0 0 -18.287-18.287h-27.062a10.8 10.8 0 0 0 -9.663-6 10.818 10.818 0 0 0 -10.806 10.8 10.817 10.817 0 0 0 10.806 10.8 10.8 10.8 0 0 0 9.663-6h27.062a8.691 8.691 0 0 1 8.679 8.681 8.69 8.69 0 0 1 -8.679 8.681h-53.837a23.607 23.607 0 0 1 -23.581-23.579 23.607 23.607 0 0 1 23.581-23.579h7.5a14.514 14.514 0 0 0 13.934-10.384 31.736 31.736 0 0 1 30.539-22.61 31.991 31.991 0 0 1 31.27 25.54 13.463 13.463 0 0 0 7.472 9.6 23.649 23.649 0 0 1 13.75 21.433 23.407 23.407 0 0 1 -6.012 15.687 10.7 10.7 0 0 0 -2.634-1.071 10.816 10.816 0 0 0 -13.143 7.789 10.728 10.728 0 0 0 1.172 8.185 10.729 10.729 0 0 0 6.617 4.958 10.814 10.814 0 0 0 2.7.342 10.737 10.737 0 0 0 5.487-1.512 10.731 10.731 0 0 0 4.96-6.617 10.709 10.709 0 0 0 .255-3.925 4.8 4.8 0 0 0 .675-.56 33 33 0 0 0 9.53-23.274" fill="#151515" opacity=".146" transform="translate(-412.191 611.088)"/>
    <path d="m545.783-508.737a4.384 4.384 0 0 1 -2.022 2.695 4.38 4.38 0 0 1 -3.335.478 4.385 4.385 0 0 1 -2.7-2.02 4.376 4.376 0 0 1 -.476-3.335 4.41 4.41 0 0 1 4.265-3.311 4.435 4.435 0 0 1 1.089.136 4.412 4.412 0 0 1 3.179 5.357zm-80.3-20.355a4.406 4.406 0 0 1 -4.4-4.4 4.407 4.407 0 0 1 4.4-4.4 4.4 4.4 0 0 1 4.395 4.349v.108a4.4 4.4 0 0 1 -4.39 4.342zm96.956-5.818a33.283 33.283 0 0 0 -19.339-30.16 3.792 3.792 0 0 1 -2.066-2.779 41.626 41.626 0 0 0 -40.683-33.239 41.283 41.283 0 0 0 -39.726 29.417 4.964 4.964 0 0 1 -4.748 3.577h-7.5a33.221 33.221 0 0 0 -33.185 33.183 33.221 33.221 0 0 0 33.185 33.183h54.514a4.709 4.709 0 0 0 .683-.069 18.3 18.3 0 0 0 16.926-18.216 18.305 18.305 0 0 0 -18.287-18.287h-27.062a10.8 10.8 0 0 0 -9.663-6 10.818 10.818 0 0 0 -10.806 10.8 10.817 10.817 0 0 0 10.806 10.8 10.8 10.8 0 0 0 9.663-6h27.062a8.691 8.691 0 0 1 8.679 8.681 8.69 8.69 0 0 1 -8.679 8.681h-53.837a23.607 23.607 0 0 1 -23.581-23.579 23.607 23.607 0 0 1 23.581-23.579h7.5a14.514 14.514 0 0 0 13.934-10.384 31.736 31.736 0 0 1 30.539-22.61 31.991 31.991 0 0 1 31.27 25.54 13.463 13.463 0 0 0 7.472 9.6 23.649 23.649 0 0 1 13.75 21.433 23.407 23.407 0 0 1 -6.012 15.687 10.7 10.7 0 0 0 -2.634-1.071 10.816 10.816 0 0 0 -13.143 7.789 10.728 10.728 0 0 0 1.172 8.185 10.729 10.729 0 0 0 6.617 4.958 10.814 10.814 0 0 0 2.7.342 10.737 10.737 0 0 0 5.487-1.512 10.731 10.731 0 0 0 4.96-6.617 10.709 10.709 0 0 0 .255-3.925 4.8 4.8 0 0 0 .675-.56 33 33 0 0 0 9.53-23.274" fill="#283fd9" transform="translate(-415.191 601.088)"/>
</svg>